<?xml version="1.0" standalone="no"?>
<!DOCTYPE svg PUBLIC "-//W3C//DTD SVG 20010904//EN"
 "http://www.w3.org/TR/2001/REC-SVG-20010904/DTD/svg10.dtd">
<svg version="1.0" xmlns="http://www.w3.org/2000/svg"
 width="470.000000pt" height="470.000000pt" viewBox="0 0 470.000000 470.000000"
 preserveAspectRatio="xMidYMid meet">
<metadata>
Created by potrace 1.14, written by Peter Selinger 2001-2017
</metadata>
<g transform="translate(0.000000,470.000000) scale(0.100000,-0.100000)"
fill="#000000" stroke="none">
<path d="M1981 4593 c-81 -84 -104 -114 -108 -142 -10 -62 -50 -130 -81 -137
-69 -15 -99 -35 -69 -47 6 -3 2 -6 -10 -6 -12 -1 -25 -5 -28 -11 -3 -5 -23
-10 -43 -10 -20 -1 -55 -7 -77 -15 -22 -8 -47 -15 -55 -15 -14 0 -139 -45
-205 -75 -94 -41 -109 -49 -95 -52 9 -2 68 19 131 46 145 62 301 101 403 101
89 0 122 -14 161 -65 18 -22 34 -34 47 -32 15 1 23 -6 29 -26 9 -34 2 -57 -17
-57 -9 0 -14 -11 -14 -30 0 -22 4 -28 15 -24 8 4 15 12 15 19 0 14 46 55 61
55 5 0 9 -9 9 -20 0 -26 7 -25 55 10 22 17 52 36 68 42 15 7 27 15 27 18 0 3
-46 22 -102 42 -92 34 -104 37 -128 24 -24 -12 -28 -11 -39 6 -6 11 -33 28
-59 39 l-47 21 25 20 c18 14 32 18 55 13 16 -4 50 -8 75 -9 25 -2 76 -13 113
-25 38 -12 74 -20 80 -17 7 2 4 5 -5 5 -28 1 -21 30 10 38 59 15 255 8 324
-11 64 -18 69 -21 89 -64 33 -67 21 -72 -157 -68 -139 2 -144 2 -166 -21 -12
-13 -27 -23 -35 -23 -7 0 -13 -3 -13 -7 0 -11 118 -7 165 6 22 6 51 10 65 10
l25 -1 -25 -7 c-20 -6 -14 -9 33 -15 31 -4 57 -10 57 -14 0 -4 -27 -15 -61
-26 -65 -20 -119 -55 -86 -56 17 0 25 -20 7 -20 -5 0 -24 -9 -42 -21 -28 -18
-29 -20 -8 -14 14 4 37 8 53 10 15 1 32 3 38 4 7 0 9 11 5 25 -5 20 -3 23 13
19 13 -3 17 -11 14 -24 -7 -23 14 -25 45 -3 12 8 22 10 22 5 0 -6 -4 -11 -9
-11 -5 0 -11 -9 -14 -20 -3 -11 -14 -21 -26 -21 -22 -2 -49 -4 -118 -12 -42
-4 -73 -21 -73 -39 0 -5 4 -7 9 -3 6 3 38 6 73 6 35 1 77 7 93 15 41 19 124
34 131 23 3 -5 -5 -13 -18 -18 -13 -5 -38 -15 -55 -23 -35 -14 -44 -28 -18
-28 8 0 15 -6 15 -13 0 -13 -130 -70 -187 -82 -18 -3 -48 -17 -68 -30 -54 -37
-45 -3 10 36 25 18 45 36 45 41 0 7 -6 9 -42 12 -7 1 -12 -5 -10 -12 2 -10 -4
-11 -19 -7 -15 5 -19 4 -15 -4 5 -7 -6 -11 -34 -11 -26 0 -39 4 -35 10 4 6 -1
22 -9 36 -16 23 -16 25 10 34 15 6 24 13 21 17 -9 8 -67 -17 -67 -30 0 -5 -8
-3 -18 6 -16 15 -21 15 -39 2 -11 -8 -23 -12 -26 -9 -7 7 29 44 43 44 6 0 10
5 10 10 0 21 -33 9 -67 -25 -19 -19 -38 -35 -42 -35 -3 0 -11 -10 -16 -22 -6
-13 -18 -23 -28 -23 -10 0 -24 -8 -31 -17 -12 -16 -14 -16 -29 0 -12 12 -17
13 -17 3 0 -7 -6 -27 -14 -44 -8 -18 -17 -41 -20 -51 -6 -19 -8 -18 -32 7 -21
23 -28 25 -51 16 -14 -5 -28 -7 -31 -4 -3 3 0 5 6 5 7 0 12 11 12 24 0 25 35
43 44 22 2 -6 9 4 16 22 11 29 40 46 40 23 0 -5 9 -7 20 -4 11 3 20 13 20 23
0 10 7 26 16 34 8 9 12 21 9 27 -4 5 0 18 9 27 8 10 12 23 7 30 -5 8 -19 -3
-45 -34 -40 -48 -138 -117 -216 -152 -135 -61 -318 -95 -433 -81 -60 7 -70 6
-87 -11 -23 -23 -79 -26 -129 -9 -18 6 -34 10 -36 8 -4 -4 3 -67 29 -284 14
-115 32 -284 41 -390 8 -91 -13 -17 -27 95 -7 58 -14 94 -16 80 -1 -14 6 -103
17 -197 18 -148 19 -177 7 -210 -7 -21 -11 -45 -8 -53 4 -11 -1 -10 -17 4 -25
23 -27 30 -5 22 11 -4 14 -1 10 12 -3 9 -8 31 -12 47 -4 17 -10 35 -14 40 -4
6 -10 47 -13 92 -4 45 -22 180 -41 300 -19 120 -37 250 -41 288 -3 39 -8 87
-11 108 l-6 37 -19 -24 c-10 -13 -19 -27 -19 -31 0 -12 -51 -115 -60 -120 -5
-3 -7 -12 -4 -20 5 -13 -37 -83 -78 -129 -10 -11 -18 -23 -18 -27 0 -4 -9 -9
-20 -12 -11 -3 -23 -13 -26 -24 -3 -10 -10 -26 -15 -35 -13 -26 -11 -38 7 -38
13 0 14 -7 8 -42 -4 -24 -7 -53 -6 -65 2 -27 -14 -31 -21 -5 -4 15 -11 -30 -8
-51 1 -4 -8 -3 -19 3 -16 9 -20 8 -20 -5 0 -8 5 -15 10 -15 6 0 10 -7 10 -15
0 -8 -4 -15 -10 -15 -5 0 -10 5 -10 10 0 6 -4 10 -10 10 -15 0 -12 -47 5 -64
20 -19 20 -18 -17 -91 -30 -62 -31 -65 -20 -130 6 -37 7 -76 3 -88 -8 -21 -8
-21 -17 3 -4 14 -7 29 -5 34 1 6 -1 21 -4 35 -4 17 -9 21 -14 13 -6 -10 -11
-9 -21 3 -10 12 -10 18 0 30 15 18 -1 20 -18 3 -15 -15 -16 -54 -2 -63 16 -10
12 -22 -10 -28 -34 -9 -24 -29 10 -22 l31 7 -6 -46 c-3 -32 -1 -46 7 -46 6 0
9 -2 6 -5 -3 -3 -12 -3 -21 1 -12 4 -15 13 -11 31 5 19 3 24 -7 21 -8 -2 -15
-16 -17 -31 -3 -20 3 -29 28 -42 24 -12 35 -13 45 -5 11 9 12 7 8 -10 -3 -12
-16 -25 -28 -30 -34 -13 -41 -31 -19 -48 18 -13 18 -14 -3 -7 -18 5 -23 2 -24
-12 0 -10 -3 -13 -6 -5 -6 16 -33 16 -33 0 0 -7 7 -34 15 -61 8 -26 12 -54 9
-61 -3 -8 4 -19 15 -26 27 -14 27 -34 -2 -53 -18 -13 -19 -16 -4 -16 13 -1 17
-11 19 -43 1 -24 2 -50 4 -58 1 -8 2 -23 3 -33 1 -10 5 -16 10 -13 5 3 13 -22
17 -57 9 -68 9 -71 0 -122 -5 -27 -4 -35 8 -35 8 0 17 8 19 18 4 14 5 13 6 -4
0 -11 6 -25 12 -31 6 -6 8 -21 4 -33 -4 -12 -9 -19 -12 -16 -4 3 -11 1 -18 -4
-8 -7 -10 -2 -7 20 3 23 0 30 -12 30 -11 0 -16 -9 -16 -26 0 -14 -4 -23 -10
-19 -6 3 -10 50 -10 106 0 99 0 100 -22 93 -13 -4 -36 -17 -51 -30 -16 -13
-32 -24 -37 -24 -14 0 -19 15 -10 30 5 8 5 21 0 31 -12 21 -1 32 17 18 10 -9
13 -7 13 7 0 11 -5 26 -10 34 -8 13 -10 12 -10 -4 0 -16 -3 -17 -12 -8 -7 7
-16 12 -20 12 -12 0 -10 -38 2 -45 6 -3 10 -14 10 -23 0 -15 -1 -15 -17 1 -9
9 -22 31 -28 49 -6 18 -16 32 -23 30 -7 -1 -12 2 -12 8 0 5 -9 10 -20 10 -26
0 -26 -20 0 -27 11 -3 20 -9 20 -13 0 -5 16 -27 35 -51 20 -23 34 -48 31 -56
-3 -7 1 -13 10 -13 11 0 14 -6 10 -16 -8 -21 34 -112 54 -118 12 -3 12 -4 -1
-5 -10 -1 -19 -14 -23 -33 -6 -30 -7 -31 -21 -12 -16 22 -20 48 -5 39 6 -3 10
3 10 14 0 25 -20 38 -21 14 -1 -12 -3 -10 -8 7 -4 14 -3 27 1 29 5 1 2 9 -8
15 -9 7 -18 30 -20 51 -1 22 -10 44 -18 51 -9 6 -13 14 -9 17 3 4 1 7 -6 7
-15 0 -6 -53 14 -85 16 -26 27 -95 14 -95 -5 0 -9 8 -10 18 0 12 -3 10 -11 -8
-9 -21 -12 -22 -15 -8 -3 10 -14 18 -26 19 -12 0 -16 3 -9 6 9 3 7 12 -8 33
-11 15 -20 36 -20 45 0 9 -4 13 -10 10 -6 -3 -7 1 -4 9 3 9 2 16 -4 16 -20 0
-21 -32 -2 -52 11 -12 20 -25 20 -29 0 -4 3 -14 6 -23 13 -33 -12 -14 -45 34
-19 28 -36 48 -39 45 -3 -3 -11 0 -19 6 -9 9 -13 8 -13 0 0 -6 7 -14 15 -17
12 -5 13 -10 4 -20 -11 -14 -10 -15 13 -18 15 -1 22 -23 9 -31 -14 -8 -14 -35
-1 -35 6 0 10 7 10 15 0 8 4 15 10 15 5 0 9 -10 7 -21 -1 -12 4 -24 12 -27 9
-3 11 0 6 8 -6 9 -1 10 16 5 32 -10 36 -15 21 -23 -19 -12 47 -82 78 -82 35
-1 7 -15 -43 -23 -29 -5 -37 -2 -37 10 0 9 6 13 15 9 23 -8 18 22 -5 34 -17 9
-20 8 -20 -10 0 -12 -4 -18 -10 -15 -14 9 -13 -1 5 -35 8 -16 24 -34 35 -40
26 -14 16 -30 -18 -30 -20 0 -23 3 -12 10 23 14 -5 59 -34 53 -17 -4 -18 -3
-6 6 13 10 13 13 -2 21 -9 6 -24 17 -32 25 -20 20 -26 19 -26 -5 0 -11 -4 -20
-8 -20 -16 0 -21 13 -12 31 7 12 7 20 0 24 -5 3 -10 1 -10 -4 0 -6 -5 -11 -11
-11 -6 0 -8 9 -4 20 4 11 2 20 -4 20 -18 0 -13 -87 5 -94 8 -3 12 -10 9 -16
-6 -9 9 -18 60 -35 l20 -7 -20 -8 c-20 -8 -20 -8 1 -16 30 -12 7 -32 -26 -23
-14 4 -18 7 -11 8 10 1 12 4 5 11 -14 14 -46 1 -40 -16 3 -8 2 -14 -3 -14 -14
0 -9 -48 5 -54 8 -3 14 -10 14 -15 0 -6 -7 -8 -15 -5 -13 5 -15 -21 -15 -202
l0 -207 23 19 c23 19 63 44 72 44 16 0 0 -22 -35 -47 -22 -15 -40 -31 -40 -34
0 -3 28 -6 62 -7 40 -1 67 -7 77 -17 13 -13 7 -14 -55 -9 -38 3 -76 7 -85 8
-12 3 -16 -3 -15 -19 1 -18 4 -21 18 -14 22 12 38 11 38 0 0 -5 -10 -11 -22
-13 -28 -4 -36 -28 -9 -28 11 0 23 -5 26 -10 5 -8 11 -8 20 0 10 8 14 7 17 -2
4 -11 8 -10 21 1 15 12 15 15 -6 32 -22 18 -22 18 23 13 25 -3 53 -5 62 -5 29
0 20 -14 -17 -29 -35 -14 -35 -14 -13 -26 13 -7 26 -10 30 -8 5 3 8 0 8 -6 0
-6 5 -8 11 -5 6 5 4 12 -8 21 -17 12 -17 13 0 14 9 0 17 5 17 10 0 6 21 10 49
9 49 -2 74 -10 72 -23 -2 -15 0 -16 22 -5 36 20 217 10 217 -12 0 -5 -12 -9
-27 -9 -16 -1 -41 -7 -58 -14 -28 -12 -25 -13 42 -10 46 2 75 -1 81 -9 14 -16
-141 -15 -160 1 -11 8 -24 9 -49 2 -19 -6 -45 -8 -59 -5 -16 3 -34 -2 -50 -14
-22 -18 -23 -20 -7 -27 9 -3 30 -1 45 5 19 8 45 8 84 2 32 -6 73 -7 93 -4 45
7 45 -9 0 -26 -19 -7 -35 -19 -35 -27 0 -8 -7 -14 -16 -14 -8 0 -12 5 -9 10 3
6 -1 10 -9 10 -9 0 -16 -4 -16 -10 0 -5 -7 -7 -15 -4 -24 10 -17 -11 9 -25 19
-11 28 -11 47 2 27 17 174 23 164 7 -19 -32 127 10 150 43 11 16 19 18 36 11
20 -9 20 -10 -8 -24 -15 -8 -30 -17 -33 -20 -15 -16 -59 -38 -87 -44 -104 -20
-99 -18 -78 -27 11 -4 40 -9 65 -10 l45 -2 -40 -6 c-22 -3 -67 -2 -101 3 -51
7 -65 6 -87 -8 -20 -14 -23 -21 -15 -30 9 -10 19 -10 47 0 20 7 49 13 65 14
23 0 27 -4 23 -19 -3 -13 0 -18 12 -15 9 2 63 13 120 24 76 16 106 18 111 10
7 -11 50 -8 103 7 11 3 16 0 15 -8 -2 -7 3 -13 10 -14 6 0 12 -4 11 -10 -1 -5
-5 -9 -10 -8 -4 2 -6 -4 -3 -12 5 -12 8 -12 20 0 8 7 14 18 14 23 0 6 17 2 37
-8 41 -20 61 -17 42 6 -9 11 -8 14 5 14 9 0 16 -7 16 -15 0 -8 16 -22 35 -31
58 -27 95 -67 88 -95 -5 -24 -5 -24 10 -4 15 19 16 19 17 2 0 -14 5 -17 20
-12 20 6 25 -2 21 -33 -2 -10 7 -11 35 -6 34 6 36 5 29 -15 -5 -16 -3 -20 9
-15 9 4 16 1 16 -6 0 -18 49 -62 96 -85 60 -29 114 -69 114 -82 0 -7 4 -13 10
-13 8 0 60 -46 60 -54 0 -2 -12 -1 -27 1 l-28 5 25 -21 c14 -11 30 -21 36 -21
6 0 22 -25 35 -55 l24 -55 661 0 c617 0 662 1 676 18 21 25 46 90 53 140 4 23
14 49 22 57 8 9 16 21 17 28 2 14 57 90 69 95 4 2 7 8 7 13 0 6 9 30 20 55 19
42 22 44 41 30 11 -7 29 -12 40 -9 10 3 26 0 34 -7 8 -6 19 -9 25 -5 16 10 98
-15 104 -31 3 -8 14 -14 24 -14 34 0 110 -40 131 -68 11 -15 27 -34 35 -42 7
-8 16 -25 20 -37 4 -11 13 -24 21 -27 8 -3 15 -13 15 -22 0 -9 16 -34 35 -57
19 -22 35 -46 35 -52 0 -7 9 -24 21 -39 l20 -26 415 0 414 0 0 2350 0 2350
-1308 0 -1307 0 -104 -107z m749 -79 c64 -8 163 -51 202 -88 15 -14 31 -26 36
-26 4 0 16 -6 25 -13 15 -10 16 -17 6 -44 l-11 -33 -46 50 c-50 53 -89 71
-205 96 -123 26 -325 12 -452 -32 -59 -20 -150 -75 -185 -112 -22 -23 -25 -24
-28 -8 -12 60 223 180 413 211 77 12 124 12 245 -1z m243 -223 c41 -15 -41
-94 -110 -107 -18 -4 -37 -4 -40 0 -10 9 18 36 38 36 11 0 19 5 19 10 0 6 9
10 20 10 20 0 43 36 33 53 -3 4 -2 16 2 25 7 15 8 15 14 -2 4 -11 15 -22 24
-25z m-143 -61 c0 -5 -5 -12 -11 -15 -11 -8 -40 25 -33 37 6 10 44 -9 44 -22z
m150 -25 c0 -16 -6 -25 -15 -25 -18 0 -20 21 -3 38 17 17 18 16 18 -13z m-180
-24 c0 -13 -20 -25 -45 -28 -11 -1 -37 -5 -57 -7 -54 -7 -47 10 7 18 24 4 47
11 50 17 8 12 45 12 45 0z m-122 -114 c2 -10 -3 -16 -15 -15 -10 0 -25 -2 -34
-6 -10 -5 -19 -1 -22 8 -5 12 0 16 18 16 14 0 25 5 25 11 0 16 25 5 28 -14z
m20 -125 c2 -7 -5 -15 -15 -19 -10 -4 -25 -13 -33 -21 -11 -11 -15 -12 -18 -2
-5 14 38 60 52 56 6 -1 12 -8 14 -14z m-78 -2 c0 -5 -4 -10 -10 -10 -5 0 -10
5 -10 10 0 6 5 10 10 10 6 0 10 -4 10 -10z m-22 -121 c-12 -7 -24 -7 -35 0
-15 9 -12 10 17 10 29 0 32 -1 18 -10z m-728 -3 c0 -2 -7 -9 -15 -16 -12 -10
-15 -10 -15 4 0 9 7 16 15 16 8 0 15 -2 15 -4z m600 -80 c0 -3 -4 -8 -10 -11
-5 -3 -10 -1 -10 4 0 6 5 11 10 11 6 0 10 -2 10 -4z m97 -2 c-3 -3 -12 -4 -19
-1 -8 3 -5 6 6 6 11 1 17 -2 13 -5z m-37 -34 c0 -5 -7 -10 -15 -10 -8 0 -15 5
-15 10 0 6 7 10 15 10 8 0 15 -4 15 -10z m-826 -26 c-4 -15 0 -40 11 -65 17
-37 34 -51 36 -29 1 6 2 15 3 22 0 6 7 13 13 15 8 3 17 -13 25 -41 11 -41 14
-44 39 -39 16 3 33 -1 45 -11 11 -9 22 -15 25 -14 3 2 13 -3 22 -11 25 -20 45
-8 40 23 -6 32 6 33 36 4 20 -17 27 -19 42 -9 17 10 21 8 29 -14 6 -15 15 -23
20 -20 6 3 13 -1 17 -11 6 -15 7 -15 18 -1 7 10 34 18 79 22 38 3 72 8 76 10
5 3 6 -4 3 -16 -5 -18 -2 -19 23 -13 16 4 40 11 52 16 13 4 28 5 33 2 6 -3 15
-1 22 4 7 5 35 10 63 10 64 -1 82 8 57 29 -17 13 -16 14 7 8 14 -3 65 -8 114
-12 74 -5 91 -4 100 9 22 31 131 49 154 26 6 -6 47 -13 89 -15 138 -6 195 -15
241 -39 15 -8 33 -14 39 -14 14 0 90 -73 113 -107 8 -13 20 -23 27 -23 23 0
130 -191 231 -414 l13 -28 -52 5 c-72 8 -101 -7 -186 -94 -150 -155 -200 -246
-181 -332 5 -26 11 -47 13 -47 17 0 35 15 35 30 0 24 22 31 45 14 27 -20 46
-18 103 11 54 27 67 53 52 106 -8 26 -6 30 18 36 16 4 36 0 55 -10 35 -21 71
-22 86 -3 7 8 23 17 36 20 44 11 23 55 -38 81 -20 8 -38 19 -42 25 -4 6 -13 7
-23 1 -11 -6 -25 -5 -39 3 -20 10 -21 14 -10 35 18 35 57 60 101 63 37 3 41 0
78 -52 21 -30 41 -64 44 -75 3 -11 23 -56 44 -100 87 -181 148 -346 164 -445
7 -49 9 -367 2 -470 -15 -225 -28 -374 -41 -467 -8 -56 -17 -153 -20 -215 -4
-62 -11 -133 -16 -156 -29 -131 -127 -224 -287 -272 -69 -20 -81 -21 -235 -10
-89 6 -190 13 -223 15 -34 2 -87 11 -119 20 -31 9 -67 14 -81 11 -24 -6 -154
21 -164 34 -3 4 -17 10 -33 14 -15 3 -52 22 -82 41 -30 20 -56 35 -57 34 -6
-3 -94 22 -110 31 -10 6 -25 10 -33 10 -8 0 -15 4 -15 9 0 8 -37 24 -51 22 -4
0 -6 7 -5 17 1 11 -8 18 -24 20 -14 2 -29 8 -35 13 -5 5 -19 9 -32 9 -13 0
-23 4 -23 9 0 5 -9 13 -20 16 -11 3 -27 13 -35 21 -8 9 -15 11 -15 5 0 -13
-89 30 -90 43 0 5 8 15 17 22 24 17 10 29 -15 13 -30 -19 -51 -5 -47 30 3 25
0 31 -15 31 -13 0 -20 7 -20 18 0 23 -19 42 -43 42 -18 0 -19 1 -2 26 9 14 15
27 13 29 -36 30 -85 32 -91 2 -3 -16 -5 -13 -6 11 0 17 4 32 9 32 23 0 8 40
-22 61 -29 20 -31 21 -15 3 19 -23 12 -40 -10 -23 -7 6 -44 11 -82 11 l-70 0
-14 36 c-11 26 -12 41 -5 50 13 15 13 15 -29 36 -20 10 -33 24 -33 36 0 32
-16 31 -52 -4 l-35 -34 2 36 c0 20 7 38 14 40 9 3 11 0 6 -9 -6 -11 -5 -12 6
-1 11 10 10 17 -4 42 -10 17 -16 34 -13 39 4 5 -3 7 -14 4 -11 -3 -20 -11 -20
-18 0 -7 -6 -15 -12 -18 -10 -3 -10 -7 -1 -17 8 -8 8 -19 2 -31 -5 -11 -13
-28 -19 -39 -5 -11 -10 -29 -10 -39 0 -11 -5 -23 -10 -26 -15 -9 -12 26 4 57
8 15 16 56 17 92 4 64 -5 94 -17 62 -5 -13 -9 -14 -14 -6 -6 9 -15 8 -36 -5
l-29 -16 28 4 c21 3 27 0 27 -13 0 -22 -18 -37 -50 -42 -21 -2 -25 1 -25 22 0
19 -6 25 -22 26 -46 3 -48 5 -27 22 18 15 19 21 9 35 -7 9 -17 17 -22 17 -10
0 -28 31 -38 68 -4 12 -11 20 -16 17 -12 -8 -12 28 1 41 13 13 -11 66 -27 59
-7 -2 -13 0 -13 4 0 5 7 11 15 15 8 3 15 14 15 24 0 10 5 23 12 30 9 9 8 15
-5 24 -11 9 -18 33 -22 71 -2 31 -2 57 1 57 3 0 19 -7 36 -16 17 -9 39 -13 50
-11 16 5 19 2 15 -13 -3 -11 1 -27 9 -37 7 -10 14 -25 14 -33 0 -9 12 -23 28
-33 27 -17 27 -17 5 -23 -41 -11 -25 -29 30 -32 67 -3 119 -20 136 -44 10 -15
22 -19 52 -16 22 2 39 0 39 -4 0 -5 11 -14 25 -20 22 -10 27 -8 46 15 21 28
39 35 39 17 0 -6 -9 -18 -19 -27 -11 -9 -17 -21 -14 -26 4 -6 -5 -7 -23 -3
l-29 8 24 -26 c14 -14 19 -26 12 -26 -15 0 3 -18 34 -36 12 -7 22 -27 26 -49
7 -41 24 -58 52 -49 10 3 24 0 32 -6 12 -10 15 -9 15 3 0 8 5 17 11 19 14 5
-5 46 -29 64 -13 9 -13 12 2 17 14 6 14 10 4 27 -16 24 -28 26 -28 3 0 -15 -2
-14 -14 2 -8 11 -12 23 -9 28 3 5 -2 16 -11 26 -16 17 -15 18 11 15 15 -2 22
-1 14 2 -11 5 -11 8 0 15 10 6 8 9 -8 9 -12 0 -24 4 -27 9 -3 4 6 6 19 3 14
-2 25 0 25 4 1 5 3 33 6 63 3 34 -1 72 -11 100 -22 69 -27 189 -9 247 9 27 17
94 19 149 5 149 14 203 51 282 34 71 42 125 25 152 -6 10 -12 -3 -18 -40 -9
-58 -30 -73 -25 -18 2 26 0 30 -7 19 -8 -12 -11 -6 -11 22 0 20 4 39 10 43 6
4 5 16 -1 33 -13 33 -13 119 -1 135 5 7 10 30 10 52 1 22 6 56 12 75 13 45 13
80 0 80 -5 0 -10 -6 -10 -14 0 -7 -7 -19 -15 -26 -13 -10 -15 -9 -15 8 0 27
-15 35 -30 17 -7 -8 -18 -15 -24 -15 -6 0 -3 5 7 11 9 5 17 17 17 24 0 8 5 15
10 15 6 0 10 11 10 25 0 22 -2 24 -14 13 -8 -7 -12 -16 -9 -20 2 -5 -3 -8 -11
-8 -10 0 -16 9 -16 25 0 26 -24 35 -33 13 -3 -7 -6 3 -6 22 -1 25 -4 31 -12
23 -6 -6 -18 -9 -25 -6 -8 3 -21 0 -29 -7 -20 -17 -32 -5 -15 15 10 12 10 15
-1 15 -16 0 -23 56 -9 65 6 4 10 21 10 40 0 27 -4 34 -22 37 -13 2 -21 8 -19
13 1 6 8 9 13 7 7 -2 8 8 5 26 -4 19 1 43 13 68 11 21 20 46 20 55 0 25 11 49
21 49 5 0 6 -12 3 -26z m926 16 c0 -5 -17 -12 -37 -15 -21 -4 -51 -11 -67 -16
-16 -5 -32 -7 -34 -4 -8 8 -1 11 63 27 78 20 75 19 75 8z m238 -7 c-10 -2 -26
-2 -35 0 -10 3 -2 5 17 5 19 0 27 -2 18 -5z m-398 -33 c0 -5 -5 -10 -11 -10
-5 0 -7 5 -4 10 3 6 8 10 11 10 2 0 4 -4 4 -10z m-845 -196 c6 0 16 -2 23 -2
33 -5 -7 -62 -44 -62 -12 0 -24 -6 -27 -12 -3 -10 -9 -10 -26 0 -18 10 -21 10
-21 -3 0 -8 -4 -15 -10 -15 -18 0 -11 29 10 40 11 6 20 17 20 25 0 8 7 15 15
15 9 0 18 7 21 15 4 8 11 12 18 8 6 -4 16 -8 21 -9z m-935 -204 c0 -5 -5 -10
-11 -10 -5 0 -7 5 -4 10 3 6 8 10 11 10 2 0 4 -4 4 -10z m-27 -45 c-5 -13 -23
-22 -23 -11 0 15 14 35 21 31 4 -3 6 -12 2 -20z m-7 -52 c-10 -10 -19 5 -10
18 6 11 8 11 12 0 2 -7 1 -15 -2 -18z m1196 -125 c-6 -6 -15 -8 -19 -4 -4 4
-1 11 7 16 19 12 27 3 12 -12z m-812 -400 c0 -21 -3 -29 -10 -22 -5 5 -7 19
-4 32 9 31 14 27 14 -10z m357 -120 c-2 -13 -4 -5 -4 17 -1 22 1 32 4 23 2
-10 2 -28 0 -40z m-253 -193 c5 -29 4 -36 -3 -25 -6 8 -11 23 -11 33 0 10 -4
16 -9 13 -5 -4 -7 3 -4 14 4 15 2 19 -9 15 -19 -8 -33 36 -15 47 9 6 9 12 0
27 -6 10 -9 22 -5 25 8 9 47 -95 56 -149z m-664 115 c0 -5 -7 -7 -15 -4 -8 4
-15 8 -15 10 0 2 7 4 15 4 8 0 15 -4 15 -10z m666 -167 c13 2 29 -2 35 -9 6
-8 10 -14 8 -15 -41 -9 -59 -8 -60 3 0 7 -6 -7 -13 -32 -15 -57 -39 -110 -48
-110 -11 0 -10 18 2 25 6 3 10 14 10 23 -1 15 -2 15 -15 -2 -28 -37 -15 -5 15
40 17 24 30 50 29 56 -1 7 0 27 1 43 l3 30 4 -29 c4 -24 8 -27 29 -23z m17
-73 c-3 -11 -7 -20 -9 -20 -2 0 -4 9 -4 20 0 11 4 20 9 20 5 0 7 -9 4 -20z
m206 -34 c7 -8 8 -17 3 -20 -6 -3 -12 3 -15 14 -6 24 -4 25 12 6z m-179 -42
c0 -13 4 -24 9 -24 15 0 30 -58 24 -95 -4 -24 -9 -32 -17 -26 -7 6 -18 4 -29
-4 -16 -11 -17 -19 -9 -49 6 -20 10 -37 9 -37 -1 -1 -12 -3 -24 -4 -25 -2 -31
10 -9 18 9 3 12 15 9 31 -6 28 -22 33 -41 14 -9 -9 -12 -4 -12 22 0 42 9 56
35 61 14 3 20 13 21 30 1 14 4 31 8 37 4 7 2 20 -3 30 -12 22 -5 33 15 25 8
-3 14 -16 14 -29z m-792 -203 c11 -7 11 -9 -2 -14 -21 -8 -20 -33 2 -46 11 -7
13 -10 3 -11 -9 0 -12 -8 -9 -25 3 -14 1 -25 -4 -25 -5 0 -6 -6 -3 -12 4 -7 0
-5 -8 5 -8 10 -13 28 -10 40 4 20 3 21 -10 5 -20 -25 -27 -22 -27 7 0 19 5 25
22 25 16 0 19 3 11 11 -9 9 -9 16 0 30 13 21 16 22 35 10z m758 -78 c-10 -10
-19 5 -10 18 6 11 8 11 12 0 2 -7 1 -15 -2 -18z m60 -19 c23 9 16 -21 -11 -49
-14 -14 -28 -25 -30 -25 -8 0 2 87 11 101 7 11 10 8 12 -9 2 -16 8 -22 18 -18z
m574 -80 c0 -2 -9 -4 -20 -4 -11 0 -20 4 -20 9 0 5 9 7 20 4 11 -3 20 -7 20
-9z m-1541 -176 c-1 -18 -3 -25 -6 -15 -2 9 -9 17 -15 17 -6 0 -6 6 2 15 18
21 20 19 19 -17z m1371 -178 c0 -5 -2 -10 -4 -10 -3 0 -8 5 -11 10 -3 6 -1 10
4 10 6 0 11 -4 11 -10z m-857 -607 c-7 -2 -19 -2 -25 0 -7 3 -2 5 12 5 14 0
19 -2 13 -5z m132 -23 c-3 -5 -10 -10 -16 -10 -5 0 -9 5 -9 10 0 6 7 10 16 10
8 0 12 -4 9 -10z m-198 -16 c-3 -3 -12 -4 -19 -1 -8 3 -5 6 6 6 11 1 17 -2 13
-5z m253 -4 c-8 -5 -24 -9 -35 -9 l-20 0 20 9 c11 5 27 9 35 9 13 1 13 0 0 -9z
m45 1 c3 -5 22 -8 43 -5 20 2 30 1 22 -2 -8 -3 -30 -12 -47 -20 -18 -8 -35
-15 -38 -15 -2 0 -20 -6 -39 -14 -41 -17 -56 -19 -56 -6 0 5 15 13 33 16 65
15 80 24 67 40 -8 10 -9 15 -2 15 6 0 13 -4 17 -9z m-138 -17 c-3 -3 -12 -4
-19 -1 -8 3 -5 6 6 6 11 1 17 -2 13 -5z m-39 -54 c13 0 20 -4 17 -10 -3 -5
-30 -10 -58 -10 l-52 0 25 20 c16 12 29 15 35 9 5 -5 20 -9 33 -9z m420 -39
c3 -10 0 -11 -16 -2 -26 14 -52 14 -52 1 0 -5 6 -10 13 -10 7 0 18 -9 25 -20
7 -11 8 -20 3 -20 -5 0 -11 4 -13 8 -1 4 -20 18 -40 30 -31 19 -45 22 -87 16
-34 -4 -51 -3 -51 4 0 6 35 14 80 18 44 3 77 11 74 15 -3 5 9 1 27 -9 18 -10
35 -24 37 -31z m-293 29 c-3 -5 -14 -10 -23 -9 -14 0 -13 2 3 9 27 11 27 11
20 0z m363 -7 c-10 -2 -28 -2 -40 0 -13 2 -5 4 17 4 22 1 32 -1 23 -4z m-1
-68 c28 -25 30 -39 3 -25 -10 6 -25 9 -32 8 -7 -2 -13 6 -13 17 -1 11 -5 27
-10 35 -8 13 -7 13 11 0 10 -8 29 -24 41 -35z m105 -23 c-19 -6 -64 7 -57 18
3 5 19 4 37 -2 18 -6 27 -13 20 -16z m-132 -33 c0 -13 -12 -11 -32 5 -29 21
-22 39 7 20 14 -9 25 -20 25 -25z m185 31 c19 -8 19 -9 -2 -9 -12 -1 -25 4
-28 9 -7 12 2 12 30 0z m-65 -100 c0 -5 -2 -10 -4 -10 -3 0 -8 5 -11 10 -3 6
-1 10 4 10 6 0 11 -4 11 -10z m35 0 c3 -6 -1 -7 -9 -4 -18 7 -21 14 -7 14 6 0
13 -4 16 -10z m29 -76 c9 -3 16 -12 16 -19 0 -8 9 -16 19 -20 11 -3 25 -12 32
-21 10 -12 9 -13 -7 -8 -22 9 -104 63 -104 69 0 7 26 6 44 -1z m141 -22 c-6
-7 -65 9 -65 17 0 5 15 3 34 -3 19 -6 33 -12 31 -14z"/>
<path d="M2565 2551 c-41 -3 -86 -15 -110 -27 -22 -12 -52 -27 -68 -33 -26
-10 -47 -45 -47 -78 0 -11 3 -13 13 -5 32 27 196 32 236 8 19 -12 12 -34 -12
-40 -12 -3 -32 -14 -44 -26 -12 -11 -25 -20 -28 -20 -14 0 -185 -194 -185
-210 0 -4 9 -10 21 -13 16 -4 19 -10 14 -27 -6 -19 -4 -21 17 -15 12 4 37 20
53 35 24 22 44 30 94 35 53 6 70 13 94 37 21 20 28 36 25 53 -3 13 -2 28 1 34
8 13 70 15 142 6 42 -6 63 -4 85 8 l29 16 -35 1 c-19 0 -46 7 -60 16 l-25 15
32 -6 c56 -11 136 26 145 65 2 8 14 25 28 37 31 28 21 49 -38 79 -22 11 -46
25 -54 31 -24 20 -215 34 -323 24z m159 -211 c40 -15 31 -27 -20 -29 -55 -2
-143 -26 -197 -53 -50 -25 -58 -16 -19 21 67 62 166 88 236 61z"/>
<path d="M2291 2374 c-12 -14 -21 -27 -19 -29 4 -5 30 16 47 38 21 27 -3 20
-28 -9z"/>
<path d="M2229 2298 c-12 -23 -12 -23 10 -4 23 21 26 26 11 26 -5 0 -15 -10
-21 -22z"/>
<path d="M3530 2044 c0 -3 45 -51 100 -106 55 -55 100 -104 100 -109 0 -5 13
-8 29 -7 18 1 38 -5 50 -16 30 -27 47 -8 50 57 2 47 -1 56 -21 69 -23 15 -34
19 -160 57 -36 11 -81 29 -100 41 -34 20 -48 25 -48 14z"/>
<path d="M1340 1923 c0 -15 18 -35 23 -27 3 5 -1 15 -9 22 -8 7 -14 9 -14 5z"/>
<path d="M3005 1816 c-9 -13 -29 -59 -46 -102 -16 -44 -36 -93 -44 -111 -8
-17 -15 -34 -15 -37 0 -10 -63 -108 -102 -161 -42 -55 -47 -85 -20 -112 11
-10 22 -26 25 -35 4 -11 17 -18 32 -18 14 0 42 -8 63 -19 59 -30 282 -65 267
-42 -3 6 -19 11 -35 11 -17 0 -37 10 -51 25 -28 29 -39 31 -39 8 0 -15 -4 -13
-20 7 -33 42 -24 66 12 34 16 -15 18 -15 24 -1 3 8 1 24 -5 34 -14 28 8 66 44
77 17 4 57 19 90 32 33 12 94 28 135 34 89 14 150 41 190 83 36 39 31 48 -9
14 -16 -13 -56 -32 -88 -41 -32 -9 -87 -26 -123 -38 -132 -41 -226 -70 -280
-84 -30 -8 -59 -19 -65 -25 -5 -5 -16 -9 -24 -9 -8 0 -23 -7 -33 -17 -19 -17
-26 -5 -7 14 8 8 8 13 0 17 -8 5 -8 13 1 29 6 12 11 40 11 62 -2 42 47 144 85
178 20 18 83 18 145 -2 18 -5 73 -17 122 -26 103 -19 123 -14 182 38 21 19 47
39 58 45 16 9 5 11 -57 12 -42 0 -78 -4 -80 -9 -1 -5 -57 -15 -122 -21 -112
-11 -121 -10 -145 8 -34 25 -52 77 -45 130 6 48 -7 55 -31 18z"/>
<path d="M1376 1802 c-3 -5 9 -24 27 -42 27 -28 29 -32 10 -26 -15 5 -27 0
-43 -16 -15 -16 -17 -24 -8 -27 18 -5 48 -32 48 -43 0 -4 -7 -8 -15 -8 -8 0
-15 -4 -15 -10 0 -5 6 -10 14 -10 8 0 18 5 21 10 3 6 15 10 25 10 15 0 21 9
26 41 6 33 10 40 25 36 11 -3 19 -1 19 4 0 5 16 9 36 9 31 0 35 3 29 20 -5 15
-2 20 12 20 15 0 15 2 3 10 -9 5 -19 5 -27 -2 -9 -7 -17 -5 -29 7 -9 9 -25 14
-35 12 -11 -3 -22 -1 -25 4 -7 11 -91 12 -98 1z m69 -12 c-3 -5 -11 -10 -16
-10 -6 0 -7 5 -4 10 3 6 11 10 16 10 6 0 7 -4 4 -10z m105 -40 c0 -5 -5 -10
-11 -10 -5 0 -7 5 -4 10 3 6 8 10 11 10 2 0 4 -4 4 -10z"/>
<path d="M1629 1750 c13 -11 28 -20 33 -20 6 0 -1 9 -15 20 -33 26 -49 26 -18
0z"/>
<path d="M3708 1739 c-10 -5 -31 -29 -48 -53 -31 -46 -31 -65 3 -134 10 -22
12 -22 18 -4 4 10 10 44 14 76 4 33 17 71 31 91 23 35 16 44 -18 24z"/>
<path d="M1570 1690 c-8 -5 -10 -10 -5 -10 6 0 17 5 25 10 8 5 11 10 5 10 -5
0 -17 -5 -25 -10z"/>
<path d="M1355 1660 c-3 -5 1 -10 9 -10 8 0 18 5 21 10 3 6 -1 10 -9 10 -8 0
-18 -4 -21 -10z"/>
<path d="M2005 1560 c3 -5 8 -10 11 -10 2 0 4 5 4 10 0 6 -5 10 -11 10 -5 0
-7 -4 -4 -10z"/>
<path d="M1907 1554 c-12 -12 -8 -23 13 -34 23 -12 26 -2 7 24 -7 9 -16 14
-20 10z"/>
<path d="M3095 1290 c-3 -5 -1 -10 4 -10 6 0 11 5 11 10 0 6 -2 10 -4 10 -3 0
-8 -4 -11 -10z"/>
<path d="M1945 1270 c-3 -5 -1 -10 4 -10 6 0 11 5 11 10 0 6 -2 10 -4 10 -3 0
-8 -4 -11 -10z"/>
<path d="M3334 1195 c-17 -13 -17 -14 -2 -15 9 0 20 5 23 11 11 17 0 20 -21 4z"/>
<path d="M3245 1180 c-3 -5 1 -10 9 -10 9 0 16 5 16 10 0 6 -4 10 -9 10 -6 0
-13 -4 -16 -10z"/>
<path d="M2090 1105 c0 -8 2 -15 4 -15 2 0 6 7 10 15 3 8 1 15 -4 15 -6 0 -10
-7 -10 -15z"/>
<path d="M2170 1045 c0 -8 4 -15 10 -15 5 0 7 7 4 15 -4 8 -8 15 -10 15 -2 0
-4 -7 -4 -15z"/>
<path d="M1605 4165 c-111 -23 -236 -69 -333 -121 -73 -40 -190 -132 -221
-174 -21 -28 -22 -32 -4 -17 11 10 62 27 112 37 70 14 103 27 140 54 94 67
181 97 322 111 58 6 227 -7 261 -20 8 -3 22 0 31 8 17 12 17 15 -8 65 -45 89
-99 99 -300 57z"/>
<path d="M2210 4136 c0 -2 7 -7 16 -10 8 -3 12 -2 9 4 -6 10 -25 14 -25 6z"/>
<path d="M2405 4060 c-16 -7 -17 -9 -3 -9 9 -1 20 4 23 9 7 11 7 11 -20 0z"/>
<path d="M1039 3978 c-24 -17 -45 -35 -47 -40 -2 -4 -8 -8 -14 -8 -6 0 -33
-19 -60 -42 -41 -34 -47 -43 -33 -50 28 -16 74 1 91 34 8 16 41 54 72 84 63
60 59 71 -9 22z"/>
<path d="M1991 3974 c0 -11 3 -14 6 -6 3 7 2 16 -1 19 -3 4 -6 -2 -5 -13z"/>
<path d="M1176 3738 c5 -8 2 -9 -9 -5 -10 3 -17 2 -17 -4 0 -14 32 -7 38 9 2
6 -1 12 -8 12 -6 0 -8 -5 -4 -12z"/>
<path d="M729 3428 c-4 -15 -6 -38 -3 -38 2 0 8 9 14 20 7 14 7 20 0 20 -5 0
-10 -1 -11 -2z"/>
<path d="M562 3127 c-17 -47 -14 -56 8 -28 20 23 27 61 12 61 -4 0 -13 -15
-20 -33z"/>
<path d="M495 2898 c-18 -61 -18 -68 -5 -68 6 0 10 8 11 18 0 16 1 16 7 -1 4
-10 8 9 9 43 0 33 -1 60 -3 60 -2 0 -10 -23 -19 -52z"/>
<path d="M161 2603 c0 -4 4 -17 9 -28 8 -19 9 -19 9 2 1 12 -3 25 -9 28 -5 3
-10 3 -9 -2z"/>
<path d="M325 2602 c-22 -16 -10 -62 17 -62 7 0 6 5 0 13 -6 7 -9 23 -5 35 6
24 4 26 -12 14z"/>
<path d="M358 2486 c-7 -34 10 -59 18 -28 4 12 11 22 16 22 6 0 8 -7 4 -15 -7
-19 5 -19 30 0 19 14 19 15 -3 21 -13 3 -23 10 -23 15 0 5 -8 9 -19 9 -12 0
-20 -9 -23 -24z"/>
<path d="M270 2323 c0 -40 22 -44 39 -7 10 23 10 26 -5 20 -10 -4 -21 -1 -26
6 -5 8 -8 1 -8 -19z"/>
<path d="M242 2150 c-16 -26 -15 -29 8 -23 22 6 24 11 12 30 -6 9 -11 7 -20
-7z"/>
<path d="M340 2158 c0 -14 19 -38 30 -38 4 0 6 10 5 23 -2 23 -35 38 -35 15z"/>
<path d="M166 2112 c-9 -15 2 -47 15 -44 18 5 28 22 22 39 -6 14 -29 18 -37 5z"/>
<path d="M122 2050 c14 -22 24 -19 15 5 -4 8 -11 15 -17 15 -6 0 -6 -7 2 -20z"/>
<path d="M354 2034 c3 -9 6 -22 6 -30 0 -17 22 -18 38 -2 16 16 -3 48 -29 48
-15 0 -19 -5 -15 -16z"/>
<path d="M142 2000 c7 -11 16 -20 21 -20 4 0 3 9 -3 20 -6 11 -15 20 -20 20
-6 0 -5 -9 2 -20z"/>
<path d="M55 2000 c-3 -5 -2 -10 4 -10 5 0 13 5 16 10 3 6 2 10 -4 10 -5 0
-13 -4 -16 -10z"/>
<path d="M160 1926 c0 -7 7 -19 15 -26 16 -13 20 -3 9 24 -8 20 -24 21 -24 2z"/>
<path d="M100 1915 c0 -8 4 -15 9 -15 5 0 11 7 15 15 3 9 0 15 -9 15 -8 0 -15
-7 -15 -15z"/>
<path d="M190 1853 c0 -14 15 -29 33 -36 16 -6 16 -5 1 18 -16 24 -34 33 -34
18z"/>
<path d="M490 1780 c0 -5 5 -10 10 -10 6 0 10 5 10 10 0 6 -4 10 -10 10 -5 0
-10 -4 -10 -10z"/>
<path d="M0 1559 c0 -5 5 -7 10 -4 5 3 10 8 10 11 0 2 -4 4 -10 4 -5 0 -10 -5
-10 -11z"/>
<path d="M385 880 c3 -5 10 -10 16 -10 5 0 9 5 9 10 0 6 -7 10 -16 10 -8 0
-12 -4 -9 -10z"/>
<path d="M240 870 c-20 -13 11 -18 55 -10 22 4 36 9 30 10 -29 7 -74 7 -85 0z"/>
<path d="M150 860 c0 -5 5 -10 11 -10 5 0 7 5 4 10 -3 6 -8 10 -11 10 -2 0 -4
-4 -4 -10z"/>
<path d="M430 779 c0 -5 5 -7 10 -4 6 3 10 8 10 11 0 2 -4 4 -10 4 -5 0 -10
-5 -10 -11z"/>
<path d="M368 713 c7 -3 16 -2 19 1 4 3 -2 6 -13 5 -11 0 -14 -3 -6 -6z"/>
<path d="M377 702 c-15 -2 -25 -8 -22 -13 8 -12 42 -11 50 2 9 14 5 15 -28 11z"/>
<path d="M480 700 c0 -21 49 -30 101 -19 28 6 48 13 45 16 -11 11 -146 14
-146 3z"/>
<path d="M448 673 c7 -3 16 -2 19 1 4 3 -2 6 -13 5 -11 0 -14 -3 -6 -6z"/>
<path d="M685 550 c-3 -5 -2 -10 4 -10 5 0 13 5 16 10 3 6 2 10 -4 10 -5 0
-13 -4 -16 -10z"/>
<path d="M1210 490 c0 -5 5 -10 10 -10 6 0 10 5 10 10 0 6 -4 10 -10 10 -5 0
-10 -4 -10 -10z"/>
</g>
</svg>
